<svg xmlns="http://www.w3.org/2000/svg" viewBox="0 0 15.82 15.89"><title>Layer 1</title><g id="Слой_2" data-name="Слой 2"><g id="Layer_1" data-name="Layer 1"><path d="M8.82,7.94S8.18,8,8.1,8.5c0,.24-.08.63.08.79.48.48,2,.24,2.15.08a1.32,1.32,0,0,0,.39-.71c0-.24-.16-.72-.55-.72Z"/><path d="M8.74,9.85s-.56.08-.64.56c0,.23-.08.55.08.71.4.48,1.75.16,1.91,0s.39-.4.32-.56a.74.74,0,0,0-.56-.71A4.91,4.91,0,0,0,8.74,9.85Z"/><path d="M8.66,11.68a.72.72,0,0,0-.56.79c0,.32-.08,1.11.08,1.27.32.48,1.27,0,1.43-.24a2.36,2.36,0,0,0,.56-1.19c0-.32-.08-.55-.4-.63A4.78,4.78,0,0,0,8.66,11.68Z"/><path d="M7.07,7.94s.63.08.71.56c0,.24.08.63-.08.79-.47.48-2,.24-2.14.08a1.27,1.27,0,0,1-.4-.71c0-.24.16-.72.56-.72Z"/><path d="M7.15,9.85s.55.08.63.56c0,.23.08.55-.08.71-.39.48-1.74.16-1.9,0s-.4-.4-.32-.56A.74.74,0,0,1,6,9.85,4.92,4.92,0,0,1,7.15,9.85Z"/><path d="M7.23,11.68a.71.71,0,0,1,.55.79c0,.32.08,1.11-.08,1.27-.31.48-1.27,0-1.42-.24a2.36,2.36,0,0,1-.56-1.19c0-.32.08-.55.4-.63A4.79,4.79,0,0,1,7.23,11.68Z"/><path d="M15.17,5.88c0-.24.08-.56.08-1.19A4,4,0,0,0,11.36.79,4.05,4.05,0,0,0,9.77.08H6.35A.26.26,0,0,0,6.12,0,4.28,4.28,0,0,0,4.53.79,4,4,0,0,0,.64,4.69,4.82,4.82,0,0,0,.71,5.88,4.38,4.38,0,0,0,0,8.66a1.35,1.35,0,0,0,.56,1l1.9,1a1.51,1.51,0,0,0,.64.16c.08,0,.32-.4.32-.4v.64c0,.24-.08.4-.08.56a3.79,3.79,0,0,0-.08,1c0,1.27,1.35,2.38,2.14,2.86a1,1,0,0,0,.72.32H9.77a1.24,1.24,0,0,0,.71-.24c.8-.56,2.07-1.67,2.07-2.86a3.79,3.79,0,0,0-.08-1c0-.16-.08-.32-.08-.56v-.64s.24.4.32.4a1.78,1.78,0,0,0,.63-.16l1.91-1a1.16,1.16,0,0,0,.56-1A4.06,4.06,0,0,0,15.17,5.88Zm-2,3.65c-.88-.08-1.12-1.27-1.28-1.51a6.16,6.16,0,0,1-.63,2.46v.88c0,.24.08.4.08.55,0,.32.08.48.08.88s-.64,1.27-1.59,1.9H6.2c-1-.63-1.59-1.43-1.59-1.9a3,3,0,0,1,.08-.88c0-.15.08-.31.08-.55v-.88A4.05,4.05,0,0,1,4.05,8,7.75,7.75,0,0,1,2.78,9.53L1.27,8.74a4.15,4.15,0,0,1,.48-2.15L2,6.28l-.08-.56c0-.24-.08-.64-.08-1C1.83,2.3,4.37,2,4.61,2h.31l.24-.16a2.92,2.92,0,0,1,1.12-.56H9.45a2.82,2.82,0,0,1,1.11.56L10.8,2h.32c.32,0,2.78.31,2.78,2.7a3.57,3.57,0,0,1-.08,1l-.08.4.24.31a3.78,3.78,0,0,1,.48,2.23Z"/></g></g></svg>